<?xml version="1.0" encoding="UTF-8"?>
<svg version="1.1" xmlns="http://www.w3.org/2000/svg" width="3508" height="2480">
<path d="M0 0 C29.4561479 26.91258081 42.53610523 69.29351388 44.29638672 108.234375 C44.34085938 109.88373047 44.34085938 109.88373047 44.38623047 111.56640625 C44.42619141 112.61441406 44.46615234 113.66242188 44.50732422 114.7421875 C45.53554248 165.24584927 29.38354235 219.88956301 -6.03955078 256.9296875 C-7.31378906 258.23486328 -7.31378906 258.23486328 -8.61376953 259.56640625 C-9.34982422 260.36433594 -10.08587891 261.16226562 -10.84423828 261.984375 C-32.44282642 284.84189724 -67.31783084 297.38149968 -98.32568359 298.72753906 C-102.50525552 298.77368068 -106.68393829 298.81307409 -110.86376953 298.81640625 C-112.00242966 298.81741837 -112.00242966 298.81741837 -113.16409302 298.81845093 C-125.20685337 298.80146537 -136.8243557 298.21819087 -148.61376953 295.56640625 C-149.40734863 295.38948242 -150.20092773 295.21255859 -151.01855469 295.03027344 C-185.78456905 287.03443538 -221.7317106 269.39602889 -241.61376953 238.56640625 C-257.69974724 212.69515314 -265.5889135 180.92417509 -265.85205078 150.57421875 C-265.86674156 149.17096596 -265.86674156 149.17096596 -265.88172913 147.73936462 C-266.05108109 127.36496331 -266.01513679 107.56013622 -261.61376953 87.56640625 C-261.39946289 86.56722168 -261.18515625 85.56803711 -260.96435547 84.53857422 C-257.95744136 70.91992319 -253.61281478 58.15304851 -247.61376953 45.56640625 C-247.31857422 44.94556152 -247.02337891 44.3247168 -246.71923828 43.68505859 C-242.62269402 35.24178157 -237.48708282 27.86098605 -231.61376953 20.56640625 C-231.19611328 20.04578613 -230.77845703 19.52516602 -230.34814453 18.98876953 C-205.02301695 -12.37205299 -173.76533516 -29.90039911 -133.66455078 -35.0390625 C-84.38628779 -40.17786405 -37.99388325 -33.75190355 0 0 Z M-181.86376953 16.00390625 C-197.2493624 34.27429778 -204.33690311 57.47049871 -208.61376953 80.56640625 C-208.77748047 81.3960791 -208.94119141 82.22575195 -209.10986328 83.08056641 C-214.42015246 110.87729708 -213.83612925 142.81402244 -208.61376953 170.56640625 C-208.44216309 171.51241699 -208.27055664 172.45842773 -208.09375 173.43310547 C-203.38197046 198.80260656 -195.57894416 223.94931005 -179.61376953 244.56640625 C-178.92798828 245.45972656 -178.24220703 246.35304688 -177.53564453 247.2734375 C-164.31765714 263.20845564 -142.81975052 271.43857628 -122.61376953 273.56640625 C-117.67447512 273.86869805 -112.74921752 273.97418695 -107.80126953 274.00390625 C-106.01438721 274.0191333 -106.01438721 274.0191333 -104.19140625 274.03466797 C-81.63525005 273.81343754 -62.12639855 265.89827946 -46.33520508 249.8203125 C-14.68094963 216.16238219 -7.26742876 164.50758238 -8.46582031 120.16113281 C-10.09570792 80.55970524 -20.76064099 36.74709061 -50.61376953 8.56640625 C-65.20571306 -3.7435962 -83.38231958 -11.66689143 -102.61376953 -12.43359375 C-103.63728516 -12.48515625 -104.66080078 -12.53671875 -105.71533203 -12.58984375 C-135.319558 -13.36381044 -161.46829734 -6.09118862 -181.86376953 16.00390625 Z " fill="#040707" transform="translate(3375.61376953125,1097.43359375)"/>
<path d="M0 0 C23.81754828 21.66264528 35.75723393 48.61283083 42.53540039 79.64648438 C42.68662354 80.33291016 42.83784668 81.01933594 42.99365234 81.7265625 C45.99373408 96.43052043 46.66117002 111.12322993 46.59790039 126.08398438 C46.59516617 127.43127625 46.59516617 127.43127625 46.59237671 128.80578613 C46.54498199 142.70679729 46.01361073 156.28865433 43.28540039 169.95898438 C43.11379395 170.838125 42.9421875 171.71726562 42.76538086 172.62304688 C34.26947821 214.77608664 11.4569512 250.8948257 -24.29663086 275.10351562 C-62.55805277 300.24385198 -109.84084145 306.24859082 -154.26000977 297.45507812 C-187.38920753 290.39379263 -216.82840435 270.1109251 -235.71459961 241.95898438 C-254.64044411 212.68422668 -264.77451826 178.82374033 -265.71459961 143.95898438 C-265.75456055 142.91097656 -265.79452148 141.86296875 -265.83569336 140.78320312 C-266.78280807 94.26315698 -253.26557739 48.41595859 -222.71459961 12.95898438 C-221.74780273 11.79109375 -221.74780273 11.79109375 -220.76147461 10.59960938 C-215.67034482 4.59787101 -209.93641954 -0.24377791 -203.71459961 -5.04101562 C-202.8728418 -5.71003906 -202.03108398 -6.3790625 -201.16381836 -7.06835938 C-147.85256933 -47.92144095 -50.44956842 -44.57709007 0 0 Z M-179.09643555 15.44677734 C-208.48367141 48.79621584 -213.87421483 100.20400195 -211.40209961 142.79882812 C-209.51166459 170.7731716 -204.22896876 198.6760793 -191.71459961 223.95898438 C-191.40409668 224.60158203 -191.09359375 225.24417969 -190.77368164 225.90625 C-186.41029607 234.86792154 -181.45446483 242.53553851 -174.71459961 249.95898438 C-174.11389648 250.66410156 -173.51319336 251.36921875 -172.89428711 252.09570312 C-158.45289558 268.00624054 -133.91555757 275.90352893 -112.96118164 277.11865234 C-85.43761714 278.22399796 -64.72512884 270.69730509 -44.10913086 252.22070312 C-16.8307297 226.71512826 -8.32194205 185.3555616 -6.54174805 149.47509766 C-5.01796814 103.01261531 -12.10437704 52.45823713 -43.52709961 16.20898438 C-58.52081782 0.31425691 -79.49145887 -9.70495586 -101.42553711 -10.98632812 C-102.18092773 -11.004375 -102.93631836 -11.02242187 -103.71459961 -11.04101562 C-104.59374023 -11.0796875 -105.47288086 -11.11835937 -106.37866211 -11.15820312 C-133.43205561 -11.81448491 -160.25722236 -4.83699742 -179.09643555 15.44677734 Z " fill="#040707" transform="translate(2528.714599609375,1096.041015625)"/>
<path d="M0 0 C2.26168627 -0.04330611 4.52303079 -0.11169064 6.78320312 -0.20507812 C27.6139898 -1.05414268 27.6139898 -1.05414268 34.11192322 4.81416321 C36.46019202 7.3416462 38.42153833 9.97338408 40.39160156 12.81005859 C41.42773415 14.05188313 42.46714303 15.29099823 43.51269531 16.52490234 C52.05214663 28.40525198 59.72100744 40.8145964 67.11035156 53.43896484 C75.65266081 67.99080648 85.0338193 81.95120907 94.45063782 95.94538879 C97.72427466 100.81069558 100.97222849 105.6924227 104.20874023 110.58251953 C115.00071583 126.87146688 126.30768171 142.78717004 137.78710938 158.59667969 C139.39664475 160.81701562 141.00052943 163.04131902 142.60253906 165.26708984 C148.73411354 173.78383657 154.91857766 182.25857515 161.15649414 190.69775391 C165.14802431 196.10402467 169.09368325 201.54134972 173.01660156 206.99755859 C177.1253529 212.70898355 181.28447726 218.37691864 185.51660156 223.99755859 C193.84936654 235.07424136 193.84936654 235.07424136 197.64160156 240.18505859 C198.35920654 241.14061646 198.35920654 241.14061646 199.09130859 242.11547852 C202.39160156 246.58097696 202.39160156 246.58097696 202.39160156 248.81005859 C203.05160156 248.81005859 203.71160156 248.81005859 204.39160156 248.81005859 C205.59510396 229.30382568 205.57221464 209.80165615 205.5917902 190.26701903 C205.59475587 187.45019516 205.59886627 184.63337504 205.60329437 181.81655312 C205.61690241 172.9495023 205.62660414 164.08246043 205.63049626 155.21539992 C205.63497493 145.07731123 205.65254255 134.93935749 205.68149686 124.80130976 C205.70327601 116.89395646 205.71320894 108.9866407 205.71453738 101.07925779 C205.71557293 96.38777337 205.72120916 91.69641691 205.73935699 87.00496483 C206.23136219 45.73263188 206.23136219 45.73263188 196.23925781 5.98193359 C195.39160156 3.81005859 195.39160156 3.81005859 195.39160156 0.81005859 C212.55160156 0.81005859 229.71160156 0.81005859 247.39160156 0.81005859 C244.39160156 9.81005859 244.39160156 9.81005859 243.14550781 13.26708984 C232.81085622 42.37353483 232.29926843 73.65611687 232.35449219 104.2199707 C232.35588802 105.64336359 232.35723142 107.06675652 232.35852814 108.4901495 C232.38232101 127.77356575 232.49227957 147.05682035 232.59353065 166.33994794 C232.62216953 171.82908144 232.64983335 177.31821988 232.6776123 182.80735779 C232.7300662 193.14418315 232.7833634 203.48100398 232.83698416 213.81782335 C232.89811374 225.61038025 232.95827187 237.40294205 233.01835918 249.19550431 C233.14171278 273.40036123 233.26625127 297.60521193 233.39160156 321.81005859 C228.56986653 322.03111166 223.75113713 322.1912327 218.92550659 322.2975769 C217.28806135 322.34194004 215.6509623 322.40230793 214.01473999 322.47958374 C200.4498794 323.10371315 200.4498794 323.10371315 195.35216141 319.89973068 C191.61139984 316.20178243 188.5914431 312.14495406 186.31347656 307.38818359 C183.58822226 302.06570706 180.36287358 297.44690191 176.76660156 292.68505859 C175.69602127 291.20369123 174.62958957 289.71931661 173.56738281 288.23193359 C171.44824736 285.27778967 169.32081339 282.3299805 167.18457031 279.38818359 C159.76099653 269.16067326 152.46916701 258.84692461 145.24804688 248.47558594 C143.32679642 245.71700986 141.40231205 242.96070903 139.47753906 240.20458984 C130.96210262 228.00009947 122.54044398 215.73477271 114.17333984 203.42822266 C109.26201276 196.2113041 104.32597694 189.01122858 99.39160156 181.81005859 C98.93897949 181.1490918 98.48635742 180.488125 98.02001953 179.80712891 C90.20020487 168.39129884 82.3039311 157.02891147 74.390625 145.67773438 C73.09905637 143.82492964 71.80800425 141.9717647 70.51757812 140.11816406 C62.78404129 129.01139983 54.95312539 117.9831215 47.00048828 107.03222656 C45.37515448 104.78734215 43.75906667 102.53607475 42.14550781 100.28271484 C36.20726376 91.99963027 30.16559259 83.81649256 23.93920898 75.74731445 C20.13653722 70.81419772 16.46350331 65.81164908 12.87988281 60.71630859 C11.52277526 58.69656487 11.52277526 58.69656487 9.39160156 57.81005859 C6.43348181 73.98769838 6.01932919 89.72359945 6.22348571 106.14064288 C6.26389417 109.63673091 6.28708516 113.13294454 6.31282043 116.62916565 C6.35860437 122.51162421 6.41655413 128.39385964 6.48266602 134.27612305 C6.549463 140.22658643 6.60526306 146.17700513 6.64868164 152.12768555 C6.27594645 233.96939786 6.27594645 233.96939786 20.69238281 314.14990234 C21.39160156 316.81005859 21.39160156 316.81005859 21.39160156 319.81005859 C2.25160156 319.81005859 -16.88839844 319.81005859 -36.60839844 319.81005859 C-35.28839844 314.53005859 -33.96839844 309.25005859 -32.60839844 303.81005859 C-26.37292314 275.28275911 -23.06697374 246.71919801 -20.92089844 217.62255859 C-20.85996002 216.79757874 -20.79902161 215.97259888 -20.73623657 215.12261963 C-19.21285552 194.16112693 -18.44828094 173.22430926 -18.44042969 152.20849609 C-18.43719697 150.11040222 -18.43383161 148.01230855 -18.43034363 145.91421509 C-18.4244165 141.54615764 -18.42249683 137.17811977 -18.4230957 132.81005859 C-18.42317656 128.41841477 -18.41628787 124.02687616 -18.40258789 119.63525391 C-18.33673034 98.13003665 -18.33223503 76.64384315 -19.43261719 55.16162109 C-19.4672941 54.42985027 -19.50197102 53.69807945 -19.53769875 52.94413376 C-20.43133585 34.77483736 -23.28032569 18.15462382 -33.60839844 2.81005859 C-22.37246892 0.69999216 -11.40972802 0.16384727 0 0 Z " fill="#040707" transform="translate(896.6083984375,1067.18994140625)"/>
<path d="M0 0 C22.44 0 44.88 0 68 0 C66.02 5.28 64.04 10.56 62 16 C57.13595605 34.93502823 56.69204151 53.9275868 56.8125 73.375 C56.81940619 75.66495652 56.82590863 77.95491429 56.83203125 80.24487305 C56.92581248 105.16707285 57.4286252 130.08479745 58 155 C59.61609232 154.21405459 61.22972166 153.42304328 62.84228516 152.62988281 C64.19055893 151.96995331 64.19055893 151.96995331 65.56607056 151.29669189 C73.90457397 146.85429944 79.15271396 137.11547323 84.421875 129.52026367 C88.8829166 123.09695519 93.64256285 116.9689106 98.52099609 110.86035156 C112.33384885 93.48598082 125.81686414 75.82479588 138.90429688 57.8984375 C141.73016001 54.03761416 144.59169188 50.21701607 147.55078125 46.45703125 C159.75804366 30.93851477 165.5701371 20.4117823 164 0 C185.78 0 207.56 0 230 0 C229 5 229 5 227.0234375 6.5625 C226.14945313 7.036875 225.27546875 7.51125 224.375 8 C219.21975691 11.06891756 214.76381193 14.55083721 210.25 18.5 C209.63688965 19.03367187 209.0237793 19.56734375 208.39208984 20.1171875 C204.71940228 23.35982955 201.2439201 26.74647534 197.80615234 30.23535156 C195.94044544 32.05818605 194.00471429 33.75707921 192.0234375 35.453125 C187.94392295 38.97678851 184.2741053 42.78771441 180.625 46.75 C179.65119385 47.79933716 179.65119385 47.79933716 178.65771484 48.86987305 C176.76772357 50.90951791 174.88358826 52.95444385 173 55 C172.04185622 56.03272797 171.08354357 57.06529933 170.125 58.09765625 C165.33741705 63.2966721 160.77833175 68.62954941 156.33984375 74.12890625 C153.81266034 77.22987421 151.22362669 80.27155388 148.625 83.3125 C143.36343951 89.4927894 138.34213333 95.84365729 133.36181641 102.25146484 C131.59150395 104.52449779 129.80893834 106.78774291 128.02587891 109.05078125 C123.20883639 115.16654482 118.4132601 121.2991878 113.625 127.4375 C113.04194092 128.18290039 112.45888184 128.92830078 111.8581543 129.69628906 C110.745744 131.1243552 109.64448034 132.56118845 108.55566406 134.00732422 C107 136 107 136 105.40527344 137.66845703 C102.98166881 140.38128831 101.98133128 142.00922435 102.05126953 145.72094727 C102.54854023 148.86720884 103.22825124 151.91008166 104 155 C104.29003906 156.35109863 104.29003906 156.35109863 104.5859375 157.72949219 C114.76809144 204.82195414 134.18222776 250.88258678 166.91015625 286.6875 C168.68356841 288.64985514 170.38150245 290.64661409 172.0625 292.6875 C203.407037 329.45672078 257.05385626 346.19292879 303.33203125 350.5 C325.77820924 352.20151196 348.62388181 351.70118823 370.97705078 349.1875 C373.65671039 348.93913184 376.31142505 348.93028007 379 349 C378 351 378 351 375.91235352 351.88208008 C372.79996615 352.87440778 369.68708526 353.85907065 366.5625 354.8125 C365.39904053 355.16779785 364.23558105 355.5230957 363.03686523 355.88916016 C350.84471831 359.50146594 338.55109826 362.01265421 326 364 C325.19675293 364.13132324 324.39350586 364.26264648 323.56591797 364.39794922 C265.0772996 373.54521504 196.99001584 358.93195905 149 324 C140.9423278 318.09940305 133.2470062 311.88412224 126 305 C125.20940186 304.2582251 125.20940186 304.2582251 124.40283203 303.50146484 C89.66167147 270.72285772 73.9705615 225.21389625 59 181 C58.27980508 189.62840438 57.7518203 198.24145111 57.453125 206.89453125 C57.41149231 208.09390823 57.36985962 209.29328522 57.32696533 210.52900696 C56.91500976 223.28513791 56.77905245 236.0387724 56.75976562 248.80102539 C56.74997779 252.6963371 56.71874159 256.59113695 56.6875 260.48632812 C56.6039273 280.41398235 57.23065936 300.51029444 63.03515625 319.71875 C64.22319766 323.75905277 65.0864294 327.8889323 66 332 C44.88 332 23.76 332 2 332 C0.90353644 326.5176822 1.89869872 323.86449235 3.75 318.875 C12.51083375 292.79213494 10.43732602 263.84597261 10.37004495 236.70913529 C10.35854657 230.96801188 10.36285209 225.22689521 10.36479187 219.48576355 C10.36566949 209.84781955 10.35470979 200.2099466 10.33618164 190.57202148 C10.31505258 179.51976509 10.31150108 168.46761275 10.3177436 157.41534024 C10.32349328 146.67525827 10.31772447 135.93521195 10.30657005 125.19513512 C10.30199441 120.67489634 10.30101897 116.15467989 10.3031559 111.63443947 C11.23497901 59.17077906 11.23497901 59.17077906 1.8671875 7.8828125 C1 5 1 5 0 0 Z " fill="#040707" transform="translate(123,1055)"/>
<path d="M0 0 C0.91470062 -0.00167175 1.82940125 -0.00334351 2.77182007 -0.00506592 C24.54117531 -0.00743264 45.65830126 1.93781558 67.1875 5.25 C67.1875 22.74 67.1875 40.23 67.1875 58.25 C59.34432349 57.12954621 59.34432349 57.12954621 55.4375 53.6875 C54.14972656 52.6046875 54.14972656 52.6046875 52.8359375 51.5 C51.96195313 50.7575 51.08796875 50.015 50.1875 49.25 C33.42534164 35.54966004 10.6112686 28.23881048 -10.8125 26.25 C-11.4729834 26.18441895 -12.1334668 26.11883789 -12.81396484 26.05126953 C-46.50920358 22.88450943 -81.99640081 29.46387211 -108.85498047 50.99975586 C-136.61013977 74.01214222 -149.20402581 111.03717457 -152.79467773 145.86914062 C-153.58050877 154.32201773 -154.2801788 162.76212735 -153.8125 171.25 C-153.77141113 172.0229541 -153.73032227 172.7959082 -153.68798828 173.59228516 C-151.32930825 214.42834622 -138.81285406 256.80007838 -107.38574219 284.94042969 C-77.63365011 309.70613762 -30.33528746 314.17300999 6.515625 310.828125 C13.04868488 310.27616027 13.04868488 310.27616027 19.1875 308.25 C19.81077098 306.50607723 19.81077098 306.50607723 20.1875 304.375 C20.35145264 303.56321289 20.51540527 302.75142578 20.68432617 301.91503906 C20.85037354 301.03557617 21.0164209 300.15611328 21.1875 299.25 C21.36192627 298.34733398 21.53635254 297.44466797 21.71606445 296.51464844 C23.29117663 288.1287777 24.42235847 279.74578134 25.1875 271.25 C25.35572266 269.41888672 25.35572266 269.41888672 25.52734375 267.55078125 C28.09774533 233.85387284 25.47067497 200.7411124 16.1875 168.25 C37.3075 168.25 58.4275 168.25 80.1875 168.25 C81.26066527 172.54266106 81.13911487 173.08952345 79.4375 176.875 C60.86907165 220.86296647 72.89353607 281.05859204 76.1875 327.25 C45.15585805 332.7773062 14.24912349 336.47556087 -17.3125 336.4375 C-18.24036316 336.43689575 -19.16822632 336.4362915 -20.12420654 336.43566895 C-34.10655214 336.41097845 -47.93804647 336.13890032 -61.8125 334.25 C-63.22692383 334.0646167 -63.22692383 334.0646167 -64.66992188 333.87548828 C-102.74259778 328.71277335 -138.53057914 315.91712929 -166.8125 289.25 C-167.55113281 288.58742188 -168.28976562 287.92484375 -169.05078125 287.2421875 C-176.25621451 280.51029071 -181.5859506 272.55099022 -186.8125 264.25 C-187.37565918 263.35716309 -187.37565918 263.35716309 -187.95019531 262.44628906 C-203.5147201 237.13776815 -208.03696532 206.20345364 -208.0625 177 C-208.06317474 176.29990814 -208.06384949 175.59981628 -208.06454468 174.87850952 C-208.0056868 136.13847473 -198.52784253 95.25779634 -172.8125 65.25 C-171.96042969 64.24710938 -171.10835937 63.24421875 -170.23046875 62.2109375 C-134.07059724 20.70296149 -76.68422088 4.15999159 -23.46142578 0.42871094 C-15.64449854 0.04586665 -7.82505191 0.00758489 0 0 Z " fill="#040707" transform="translate(1540.8125,1059.75)"/>
<path d="M0 0 C17.04914862 -0.02358819 34.09829199 -0.04110421 51.14745331 -0.05181217 C59.06754611 -0.05692102 66.98762864 -0.06385747 74.90771484 -0.07543945 C81.82838305 -0.08555492 88.74904382 -0.0918925 95.66971922 -0.09408849 C99.31821842 -0.0953677 102.96669637 -0.09826843 106.6151886 -0.10573006 C121.88917972 -0.1356583 137.1487258 -0.01972976 152.41601562 0.44360352 C154.39086063 0.50188654 154.39086063 0.50188654 156.4056015 0.56134701 C158.26972561 0.62355859 158.26972561 0.62355859 160.17150879 0.68702698 C161.25191689 0.72306314 162.33232498 0.75909929 163.44547272 0.79622746 C167.97399596 1.05583686 172.48655257 1.54865526 177 2 C177 15.86 177 29.72 177 44 C173.73736021 42.9124534 173.37811956 42.43668107 171.4375 39.8125 C160.78906465 27.01339544 141.44394036 23.91130978 125.83050537 22.22114563 C119.72203712 21.74389479 113.5890058 21.75532358 107.46484375 21.68359375 C105.97554502 21.66298298 104.4862516 21.64198556 102.9969635 21.62062073 C99.10580788 21.56582518 95.21460327 21.51623121 91.32336426 21.46777344 C87.34118365 21.41724487 83.35907287 21.36172367 79.37695312 21.30664062 C71.5846948 21.19958035 63.79237781 21.09802305 56 21 C54.96691877 47.63929553 54.87460454 74.25305374 54.93133545 100.90942383 C54.94177507 106.35497637 54.94617611 111.80053398 54.95117188 117.24609375 C54.9617288 127.8307419 54.97867386 138.41536842 55 149 C55.84839951 148.84080078 56.69679901 148.68160156 57.57090759 148.51757812 C61.03805164 147.99425659 64.36122291 147.80835866 67.86547852 147.71875 C68.52512604 147.70070313 69.18477356 147.68265625 69.8644104 147.6640625 C72.03582677 147.60554557 74.20734497 147.55283926 76.37890625 147.5 C77.91187153 147.45941202 79.44482533 147.41838833 80.97776794 147.37695312 C85.01870224 147.26860368 89.05974027 147.16486681 93.10083008 147.0625 C100.27699502 146.88030242 107.45298644 146.6915862 114.62890625 146.5 C115.39685453 146.47968657 116.16480282 146.45937313 116.95602226 146.43844414 C126.83327967 146.17518901 136.70386166 145.85532781 146.57032776 145.31018066 C154.04882674 144.90201159 161.51195549 144.90467836 169 145 C167.30708658 152.1649568 164.72879707 154.73670916 159 159 C158.41347656 159.45375 157.82695312 159.9075 157.22265625 160.375 C130.27554253 179.24387613 86.25185544 174.32055873 55 175 C54.97650153 184.19935874 54.95889876 193.39870667 54.94818783 202.59808922 C54.94303898 206.87285826 54.93609316 211.14760632 54.92456055 215.42236328 C54.85166586 239.54166212 54.85166586 239.54166212 55.421875 263.65234375 C55.4582457 264.64168915 55.49461639 265.63103455 55.53208923 266.65036011 C56.17024712 281.31052189 57.93246183 295.85883519 62.1328125 309.94140625 C63 313 63 313 64 319 C41.89 319 19.78 319 -3 319 C0 309 0 309 1.0625 305.55078125 C3.25484109 297.97806975 4.6526718 290.49486275 5.6875 282.6875 C5.80673828 281.8003833 5.92597656 280.9132666 6.04882812 279.99926758 C7.9347359 264.71987171 8.15040213 249.34880759 8.14526367 233.9753418 C8.14826593 232.14784172 8.15167086 230.32034228 8.15544128 228.49284363 C8.16417998 223.58302459 8.16661515 218.67322304 8.16725707 213.76339698 C8.16797371 210.67787803 8.17011953 207.59236335 8.17275429 204.50684547 C8.18197632 193.69067738 8.18609339 182.87452151 8.18530273 172.05834961 C8.18470376 162.06107312 8.19522836 152.06385089 8.2110464 142.0665881 C8.22423472 133.41531016 8.22948191 124.76404969 8.22884732 116.1127618 C8.2285955 110.97622912 8.23126783 105.83974471 8.24202538 100.70322227 C9.61500855 53.17751811 9.61500855 53.17751811 0.55078125 7.0078125 C-0.10555157 4.61522334 -0.03582568 2.47120935 0 0 Z " fill="#040707" transform="translate(1932,1068)"/>
<path d="M0 0 C82.83 0 165.66 0 251 0 C247.97787123 9.06638632 242.95364682 13.23784447 234.625 17.75 C219.0783926 25.38876575 201.45258943 26.16488096 184.4609375 26.09765625 C183.08517509 26.09578668 181.709412 26.09436533 180.33364868 26.09336853 C176.74658304 26.08958572 173.15955914 26.07979262 169.57250977 26.06866455 C165.898606 26.05835835 162.22469536 26.05385136 158.55078125 26.04882812 C151.36716866 26.03816571 144.18359022 26.02114146 137 26 C137.33 26.99 137.66 27.98 138 29 C138.09701444 31.96854626 138.13637085 34.91344667 138.12939453 37.88208008 C138.13202301 39.24956894 138.13202301 39.24956894 138.13470459 40.64468384 C138.1391318 43.68631864 138.13617171 46.72789575 138.1328125 49.76953125 C138.13348776 51.91948965 138.13445962 54.06944798 138.13571167 56.21940613 C138.13719177 60.76338414 138.13503314 65.30734261 138.13037109 69.85131836 C138.12481819 75.52639031 138.12794854 81.20141385 138.13382053 86.87648392 C138.15414795 110.19507365 138.00084521 133.49550373 137.43424416 156.80756187 C137.0070665 174.38527641 136.81215221 191.95335352 136.81469727 209.53613281 C136.81477924 212.61334008 136.8076777 215.69040067 136.79418945 218.76757812 C136.7202483 236.01083637 136.94151842 253.20650184 137.82421875 270.4296875 C137.87623412 271.53874136 137.87623412 271.53874136 137.92930031 272.67020035 C138.58089818 286.16090561 140.59628454 298.62661906 146.01367188 311.08789062 C147.22094784 313.92302241 148 315.87739996 148 319 C126.22 319 104.44 319 82 319 C82 312.91143003 82.693833 309.54339949 84.875 304.1875 C92.57173757 283.8133884 91.16143347 259.79611568 91.1328125 238.30078125 C91.1334904 236.4507801 91.1344644 234.60077905 91.13571167 232.7507782 C91.1371736 228.88926335 91.13508833 225.02777186 91.13037109 221.16625977 C91.12475794 216.34987409 91.12799939 211.53354477 91.13382149 206.71716118 C91.15291587 187.94730847 91.0445037 169.1960884 90.5 150.43359375 C89.86386922 128.44936373 89.84686962 106.46966006 89.86962891 84.47753906 C89.87545166 78.77540411 89.87194746 73.07331495 89.86605644 67.37118149 C89.86245676 62.92750699 89.86358452 58.48384357 89.86618423 54.04016876 C89.86684873 51.93341313 89.86604184 49.82665648 89.86370468 47.71990204 C89.86117457 44.81291469 89.86501808 41.90600496 89.87060547 38.99902344 C89.86858124 38.14117249 89.86655701 37.28332153 89.86447144 36.3994751 C89.86729126 35.61036743 89.87011108 34.82125977 89.87301636 34.00823975 C89.8735819 32.98554804 89.8735819 32.98554804 89.87415886 31.94219589 C90.00891113 29.86246822 90.43669361 28.00278224 91 26 C83.06199359 26.08516674 75.12419122 26.18032788 67.18645477 26.28752708 C63.49885152 26.33702955 59.81127077 26.38335459 56.12353516 26.421875 C52.55072429 26.45932096 48.97812634 26.50582168 45.40550232 26.55806351 C43.40977082 26.58504493 41.41392536 26.60314504 39.41809082 26.62094116 C21.49954386 26.90348722 4.90273034 29.24093408 -11 38 C-9.01994305 29.16164523 -6.91895831 20.38260685 -4.375 11.6875 C-4.16915283 10.97730713 -3.96330566 10.26711426 -3.7512207 9.53540039 C-2.7379229 6.13352697 -1.59695391 3.19390781 0 0 Z " fill="#040707" transform="translate(2721,1068)"/>
<path d="M0 0 C21.12 0 42.24 0 64 0 C65.00334148 4.01336591 65.02047285 4.82089486 63.8125 8.5 C63.53956242 9.34165081 63.26662483 10.18330162 62.98541641 11.050457 C62.35180786 12.94697063 61.68928837 14.83419826 60.99135971 16.70799637 C58.28538341 24.15646068 57.18050295 31.02609493 56.76660156 38.91699219 C56.69140415 40.19419506 56.61620674 41.47139793 56.53873062 42.78730392 C55.53528452 61.22390172 55.70805508 79.71065646 55.73134899 98.16755772 C55.73650719 103.5551274 55.73169116 108.94269119 55.72857666 114.33026123 C55.72496626 123.363416 55.72965961 132.39653777 55.73925781 141.4296875 C55.7501499 151.79877462 55.74659935 162.16778309 55.735605 172.53686833 C55.72646365 181.52634698 55.72527959 190.51580227 55.73048234 199.50528407 C55.73356306 204.836597 55.73412091 210.16787324 55.72740936 215.49918365 C55.11142154 265.6726676 55.11142154 265.6726676 66.046875 314.296875 C67 317 67 317 67 319 C45.22 319 23.44 319 1 319 C-0.07690956 313.61545222 0.7591638 311.38088475 2.8125 306.625 C10.42447403 287.63313567 9.15174028 265.48157588 9.14526367 245.28857422 C9.14826547 243.38712499 9.1516703 241.48567637 9.15544128 239.58422852 C9.16418628 234.47173531 9.16661547 229.3592589 9.16725707 224.24675894 C9.16797353 221.03323924 9.17011908 217.81972365 9.17275429 214.60620499 C9.18197959 203.33919255 9.18609312 192.07219186 9.18530273 180.80517578 C9.1847042 170.39556482 9.19521909 159.98600605 9.2110464 149.57640827 C9.22424414 140.56670008 9.2294815 131.55700867 9.22884732 122.54729092 C9.2285957 117.19883515 9.23125625 111.85042575 9.24202538 106.50197983 C10.41347123 56.42876054 10.41347123 56.42876054 0.76953125 7.734375 C0 5 0 5 0 0 Z " fill="#040707" transform="translate(574,1068)"/>
</svg>
