<?xml version="1.0" encoding="UTF-8"?>
<svg version="1.1" xmlns="http://www.w3.org/2000/svg" width="3508" height="2480">
<path d="M0 0 C1157.64 0 2315.28 0 3508 0 C3508 818.4 3508 1636.8 3508 2480 C2350.36 2480 1192.72 2480 0 2480 C0 1661.6 0 843.2 0 0 Z " fill="#FEFEFE" transform="translate(0,0)"/>
<path d="M0 0 C23.04686552 19.52632071 34.41163237 49.10106697 40.23046875 77.9140625 C40.38354492 78.65221191 40.53662109 79.39036133 40.69433594 80.15087891 C41.69583607 85.05147789 42.52655464 89.96216036 43.23046875 94.9140625 C43.33488281 95.64334961 43.43929687 96.37263672 43.546875 97.12402344 C46.99388815 122.61664921 46.6542363 149.05961216 41.73876953 174.29492188 C41.29216219 176.59617236 40.88866402 178.8981099 40.5078125 181.2109375 C36.86233144 201.90504557 28.7736775 223.66751266 15.23046875 239.9140625 C14.60269531 240.71457031 13.97492187 241.51507812 13.328125 242.33984375 C-0.69914949 259.22103589 -20.75629124 271.44675652 -42.69628906 273.73535156 C-71.28812288 276.19993262 -99.67367792 267.76334648 -121.6796875 249.3125 C-148.5635022 224.44956431 -159.15527858 177.78284782 -160.76953125 142.9140625 C-160.95615362 136.34071358 -160.99727127 129.7673267 -161.00976562 123.19165039 C-161.01938967 120.14636038 -161.0504576 117.10177079 -161.08203125 114.05664062 C-161.18271521 95.6659662 -159.65128532 77.4079211 -154.58203125 59.6640625 C-154.28087402 58.58543945 -153.9797168 57.50681641 -153.66943359 56.39550781 C-146.03299969 29.93665671 -132.23444327 4.09323003 -107.2890625 -9.81640625 C-73.80891526 -26.68624788 -29.63851067 -22.32294033 0 0 Z " fill="#FEFEFE" transform="translate(2480.76953125,1102.0859375)"/>
<path d="M0 0 C1.22589844 1.03060547 1.22589844 1.03060547 2.4765625 2.08203125 C3.73339844 3.09716797 3.73339844 3.09716797 5.015625 4.1328125 C32.29619616 27.23261501 44.56368196 66.66121242 48.01171875 101.09765625 C49.66348312 122.09286158 49.88122616 144.26559772 46.4765625 165.08203125 C46.34233887 165.95134277 46.20811523 166.8206543 46.06982422 167.71630859 C44.17037697 179.84290152 41.70265477 191.54804195 37.4765625 203.08203125 C37.18765137 203.87351562 36.89874023 204.665 36.60107422 205.48046875 C27.66325004 229.59914325 13.87753951 255.55297903 -10.5234375 267.08203125 C-36.39309047 278.2128706 -65.74277611 277.89181948 -92.12109375 268.4609375 C-100.85963013 264.91937224 -108.37915019 260.21546338 -115.5234375 254.08203125 C-116.39548828 253.35306641 -116.39548828 253.35306641 -117.28515625 252.609375 C-128.22918785 242.6347448 -134.72494456 228.42464609 -140.5234375 215.08203125 C-140.92175781 214.20289063 -141.32007812 213.32375 -141.73046875 212.41796875 C-163.25029013 162.51941878 -163.39630858 93.35695333 -143.5234375 43.08203125 C-134.91331076 21.90321343 -121.54089688 2.41463698 -100.5234375 -7.91796875 C-93.23295948 -10.96794085 -86.00076539 -12.90557788 -78.2109375 -14.16796875 C-77.17694824 -14.33562744 -76.14295898 -14.50328613 -75.07763672 -14.67602539 C-49.3670795 -18.52654055 -21.11558582 -16.68195073 0 0 Z " fill="#FEFEFE" transform="translate(3325.5234375,1098.91796875)"/>
<path d="M0 0 C1.56754589 1.4529082 3.1305424 2.91075091 4.6875 4.375 C5.59048828 5.18130859 5.59048828 5.18130859 6.51171875 6.00390625 C25.99269352 24.12257509 36.14116978 52.06249295 41.6875 77.375 C41.88859375 78.15101562 42.0896875 78.92703125 42.296875 79.7265625 C45.80479901 93.4925067 46.09779667 108.18057075 46.0625 122.3125 C46.06228851 123.10671356 46.06207703 123.90092712 46.06185913 124.71920776 C46.02280594 139.55738557 44.64224966 153.80579233 41.6875 168.375 C41.51621582 169.25285156 41.34493164 170.13070313 41.16845703 171.03515625 C35.46168622 199.41003205 22.95173339 228.78642129 4.6875 251.375 C4.19668945 251.98778809 3.70587891 252.60057617 3.20019531 253.23193359 C-19.2923844 281.01482411 -49.43653018 296.43442218 -84.3125 302.375 C-85.22418945 302.551521 -86.13587891 302.72804199 -87.07519531 302.90991211 C-90.89500358 303.45868547 -94.65734938 303.55512522 -98.5078125 303.578125 C-99.28885849 303.58518463 -100.06990448 303.59224426 -100.87461853 303.59951782 C-133.87349776 303.82984579 -133.87349776 303.82984579 -148.3125 300.375 C-149.1384668 300.18164062 -149.96443359 299.98828125 -150.81542969 299.7890625 C-175.19010901 293.88887864 -198.03055384 283.4941091 -217.3125 267.375 C-218.09004639 266.72724609 -218.09004639 266.72724609 -218.88330078 266.06640625 C-243.96873577 244.8723189 -255.55567844 215.03429527 -261.3125 183.375 C-261.54582031 182.16972656 -261.77914062 180.96445313 -262.01953125 179.72265625 C-264.34483617 166.99203003 -264.55089188 154.09010143 -264.5625 141.1875 C-264.56350708 140.40319611 -264.56451416 139.61889221 -264.56555176 138.81082153 C-264.55322758 124.50879634 -263.61676034 110.50845889 -261.3125 96.375 C-261.17328125 95.51712891 -261.0340625 94.65925781 -260.890625 93.77539062 C-253.95219149 53.01209374 -232.26440742 14.55472761 -198.4375 -10 C-191.17477281 -15.07591224 -183.34461591 -18.93340687 -175.3125 -22.625 C-174.33023438 -23.09679688 -173.34796875 -23.56859375 -172.3359375 -24.0546875 C-118.12865009 -48.63883756 -44.33238485 -39.17130124 0 0 Z M-180.87353516 16.64746094 C-198.46581636 37.76774967 -205.49260077 65.59941293 -209.02001953 92.25488281 C-209.28747864 94.19362647 -209.60786178 96.12487921 -209.93359375 98.0546875 C-217.3317504 145.50493359 -208.93530601 207.27680967 -180.27734375 247.2109375 C-178.35937246 249.67214921 -176.37731298 252.03628326 -174.3125 254.375 C-173.78398437 254.99761719 -173.25546875 255.62023438 -172.7109375 256.26171875 C-158.83095755 271.47499726 -135.18978392 278.5218625 -115.05126953 279.48291016 C-93.33320444 280.03381179 -70.52583487 278.07369117 -53.3125 263.375 C-52.43722656 262.66988281 -51.56195312 261.96476562 -50.66015625 261.23828125 C-38.17374428 250.6432192 -29.86385303 237.23158549 -23.3125 222.375 C-22.97089844 221.60526855 -22.62929687 220.83553711 -22.27734375 220.04248047 C-0.43006784 170.06985997 0.73316229 105.84291899 -18.92773438 55.02416992 C-29.34596301 29.32831509 -45.3200238 5.64852223 -71.5625 -5.5625 C-107.89826353 -19.96549604 -154.54199788 -12.82230181 -180.87353516 16.64746094 Z " fill="#060709" transform="translate(3380.3125,1094.625)"/>
<path d="M0 0 C0.98007019 0.00403839 1.96014038 0.00807678 2.96990967 0.01223755 C43.86273094 0.24776943 82.68918329 10.05351195 113.15625 38.68359375 C134.78115447 61.10353147 147.09691246 90.5060996 151.46386719 121.1003418 C151.72079441 122.82272579 152.01323234 124.53990288 152.32519531 126.25317383 C154.07252609 136.6091347 154.11706252 146.84404049 154.07324219 157.32299805 C154.06253194 160.36592591 154.07318617 163.40826198 154.0859375 166.45117188 C154.09368014 177.31116198 153.60460932 187.70788549 151.8125 198.4375 C151.59525519 200.00339696 151.3811558 201.56973753 151.171875 203.13671875 C145.14747472 243.92951999 123.96485816 281.96628544 90.81054688 306.91162109 C53.54171407 334.02326014 8.27060504 343.80678308 -37.26953125 337.18359375 C-62.20246182 332.43564785 -83.8557431 323.03421734 -103.1875 306.4375 C-104.09242188 305.66664063 -104.99734375 304.89578125 -105.9296875 304.1015625 C-121.57526411 290.36292598 -132.53318326 273.19949152 -141.1875 254.4375 C-141.64769531 253.45652344 -142.10789062 252.47554687 -142.58203125 251.46484375 C-149.48368703 235.88682071 -153.26288575 219.15167044 -156.1875 202.4375 C-156.414375 201.23609375 -156.64125 200.0346875 -156.875 198.796875 C-164.5068772 152.36962203 -152.90654294 100.18378014 -126.5625 61.3125 C-125.12652353 59.33771466 -123.6691134 57.37828007 -122.1875 55.4375 C-121.48238281 54.51066406 -120.77726562 53.58382813 -120.05078125 52.62890625 C-96.06117363 22.26504024 -63.30797034 5.2887958 -25.08032227 0.72537231 C-16.74260236 -0.10433601 -8.3703171 -0.05801422 0 0 Z M-72.58984375 49.4296875 C-84.75013812 63.51002835 -91.94853587 80.78736709 -97.1875 98.4375 C-97.38472656 99.09443848 -97.58195312 99.75137695 -97.78515625 100.42822266 C-103.3010533 119.22759555 -104.68870559 138.71101229 -104.52368164 158.20947266 C-104.4998917 161.20111841 -104.50318453 164.19187569 -104.50976562 167.18359375 C-104.48743522 183.5003485 -103.48325305 199.51049472 -99.75 215.4375 C-99.44352539 216.81615234 -99.44352539 216.81615234 -99.13085938 218.22265625 C-92.42441689 247.93156968 -81.22005617 281.50672513 -54.5625 299.0625 C-31.51561016 313.61778011 -2.25435364 319.29803676 24.51171875 313.59765625 C37.67588292 310.33587224 48.61743797 303.11651597 58.8125 294.4375 C59.64394531 293.756875 60.47539062 293.07625 61.33203125 292.375 C71.22392155 284.01660547 77.85102611 273.79041368 83.8125 262.4375 C84.34875 261.42042969 84.885 260.40335938 85.4375 259.35546875 C93.19112577 243.62610815 96.77598035 226.59190658 99.37036133 209.36181641 C99.68069393 207.30926868 100.01036292 205.25959591 100.35424805 203.21240234 C101.81799069 194.0491778 102.17158974 185.06369011 102.125 175.8125 C102.12317719 175.05593109 102.12135437 174.29936218 102.11947632 173.51986694 C101.93758863 128.25353025 93.68916659 80.63505316 61.8125 46.4375 C41.70356153 27.48017474 17.54967453 21.57038079 -9.4140625 22.125 C-34.66028442 23.1523132 -54.85886156 31.1119246 -72.58984375 49.4296875 Z " fill="#060709" transform="translate(2424.1875,1060.5625)"/>
<path d="M0 0 C22.11 0 44.22 0 67 0 C66.34 1.98 65.68 3.96 65 6 C57.95137396 27.45978456 55.63468851 48.34554251 55.8125 70.8125 C55.81938789 72.6221503 55.82589266 74.43180209 55.83203125 76.24145508 C55.88773579 87.71025118 56.17334241 99.15549913 56.6394043 110.61523438 C56.98948299 119.51705333 57.1129885 128.40501759 57.125 137.3125 C57.12951172 138.56506592 57.13402344 139.81763184 57.13867188 141.1081543 C57.12872059 147.16724167 56.93740668 153.01101285 56 159 C57.86284587 158.16493116 59.71489205 157.30576239 61.5625 156.4375 C62.59503906 155.96183594 63.62757813 155.48617188 64.69140625 154.99609375 C71.98600584 150.59521962 76.47875371 144.2156198 81.0625 137.1875 C87.06780882 128.20271823 93.53123986 119.68544382 100.24267578 111.22070312 C103.14046063 107.55881774 106.00831846 103.87375532 108.875 100.1875 C109.44653809 99.45265381 110.01807617 98.71780762 110.60693359 97.96069336 C120.69627661 84.96964744 130.72081203 71.93918238 140.26220703 58.53833008 C142.92576986 54.81208292 145.64052596 51.14970279 148.484375 47.55859375 C161.2239583 31.46320036 165 21.67532889 165 0 C186.45 0 207.9 0 230 0 C230 1.65 230 3.3 230 5 C228.26953125 6.4140625 228.26953125 6.4140625 225.8125 7.625 C218.76678808 11.51502686 212.97106781 16.67175468 207 22 C206.47003418 22.47211914 205.94006836 22.94423828 205.39404297 23.43066406 C194.29386675 33.37877394 183.22148742 43.72890265 173.59375 55.125 C171.65674129 57.40383378 169.64094375 59.60324657 167.625 61.8125 C163.37351467 66.52843331 159.34952921 71.39765458 155.35742188 76.33349609 C153.80627064 78.23784112 152.24011071 80.12923131 150.671875 82.01953125 C143.59730879 90.55099568 136.69940121 99.17098781 130 108 C128.33676965 110.16931629 126.66826625 112.33455545 125 114.5 C124.16922352 115.58069279 123.33849432 116.66142194 122.5078125 117.7421875 C120.39307128 120.49184712 118.27042185 123.23530317 116.14575195 125.97729492 C114.89236992 127.6024775 113.65085777 129.23622004 112.41015625 130.87109375 C110.83442847 132.91673063 109.21817259 134.93193827 107.55859375 136.91015625 C106.81738281 137.82667969 106.07617188 138.74320313 105.3125 139.6875 C104.64863281 140.47511719 103.98476562 141.26273438 103.30078125 142.07421875 C100.01268962 149.46995638 103.78258699 159.2359842 105.625 166.75 C105.89006348 167.83764648 106.15512695 168.92529297 106.42822266 170.04589844 C122.30682487 233.76399783 153.87186988 293.50344933 211.1875 328.5 C230.41503882 339.98576549 251.23305585 347.06456725 273 352 C274.09356812 352.25861816 274.09356812 352.25861816 275.20922852 352.52246094 C293.79396571 356.83637142 312.57449794 357.29694026 331.5625 357.3125 C332.5448764 357.31590393 333.52725281 357.31930786 334.53939819 357.32281494 C345.58018725 357.34469271 356.35076835 356.98555855 367.28881836 355.42651367 C371.25365054 354.97084879 375.0138046 354.93070607 379 355 C369.0301128 364.9698872 343.78688821 366.9725882 330 369 C328.50847412 369.22212158 328.50847412 369.22212158 326.98681641 369.44873047 C264.14468785 378.48453567 197.32369066 364.35389128 145.81982422 326.38378906 C140.68519438 322.47943141 135.82785821 318.27373729 131 314 C130.10539063 313.22785156 129.21078125 312.45570313 128.2890625 311.66015625 C101.10155006 287.86062613 85.51951796 254.74502085 72.375 221.75 C72.11486115 221.10276978 71.85472229 220.45553955 71.58670044 219.78869629 C66.37055725 206.7529895 62.18081344 193.39738232 58 180 C52.70614996 259.44182139 52.70614996 259.44182139 66 337 C44.55 337 23.1 337 1 337 C2.08746619 327.21280433 2.08746619 327.21280433 4.375 322 C13.33904798 297.21498612 10.41453551 268.17218797 10.33711338 242.26259279 C10.32188796 236.16704084 10.32324702 230.07148941 10.32244873 223.97592163 C10.31877636 213.75361069 10.30391029 203.53136772 10.28125 193.30908203 C10.25233487 180.23964909 10.24201768 167.17027056 10.2375679 154.1008091 C10.23357063 142.78815798 10.22107787 131.47551839 10.20722103 120.16287565 C10.20315017 116.56132884 10.20021054 112.95978242 10.19742584 109.35823441 C10.19248343 103.67641768 10.18219893 97.99463274 10.16798782 92.31283188 C10.16351884 90.24382058 10.16063922 88.17480504 10.15958023 86.10578918 C10.14907162 69.31883971 9.85102195 52.54391992 7.6875 35.875 C7.55996338 34.87509033 7.43242676 33.87518066 7.30102539 32.8449707 C5.66045747 17.75188547 5.66045747 17.75188547 0 4 C0 2.68 0 1.36 0 0 Z " fill="#060809" transform="translate(117,1052)"/>
<path d="M0 0 C1.14705414 -0.01377182 2.29410828 -0.02754364 3.47592163 -0.04173279 C5.88787082 -0.06489284 8.29988244 -0.08221475 10.71191406 -0.09399414 C14.39505341 -0.12106887 18.07538702 -0.1961174 21.7578125 -0.27148438 C24.10935582 -0.28813111 26.46092164 -0.30190116 28.8125 -0.3125 C29.90744781 -0.34235489 31.00239563 -0.37220978 32.13052368 -0.40296936 C37.56211473 -0.37176185 40.88089112 -0.12573165 44.84985352 3.78735352 C45.85470684 4.98047607 46.83145254 6.19804952 47.7734375 7.44140625 C48.6840623 8.51613608 49.59646768 9.58936345 50.51171875 10.66015625 C51.37670096 11.74845032 52.23459789 12.84240713 53.0859375 13.94140625 C53.55829834 14.55048828 54.03065918 15.15957031 54.51733398 15.78710938 C63.99504616 28.15554755 71.89606494 41.47779183 79.82641602 54.86523438 C89.67870111 71.47301657 100.1445796 87.6668574 110.87255859 103.72045898 C112.64375676 106.3718993 114.40999188 109.026596 116.17578125 111.68164062 C123.69682769 122.96759935 131.3817229 134.12820239 139.19976807 145.21034241 C141.28721556 148.16981314 143.36881164 151.13338116 145.45051575 154.09689331 C151.60327339 162.84364192 157.85790416 171.515587 164.13232422 180.17529297 C166.84991934 183.92785439 169.56130759 187.68489418 172.2734375 191.44140625 C172.81033203 192.18455078 173.34722656 192.92769531 173.90039062 193.69335938 C176.59921036 197.4289406 179.2958842 201.16603652 181.98828125 204.90625 C188.1800909 213.50249096 194.4258124 222.05575966 200.72290039 230.57519531 C205.81667274 237.4763888 210.81718471 244.44098468 215.7734375 251.44140625 C223.59779875 243.617045 219.0472946 210.13634591 219.05133057 198.87083435 C219.04936335 196.14661307 219.04597737 193.42239724 219.04208851 190.69817805 C219.03694439 185.95198654 219.0417428 181.20580189 219.04486084 176.45960999 C219.04847606 168.49771716 219.04376586 160.53586172 219.03417969 152.57397461 C219.02329616 143.43020665 219.02682996 134.28652793 219.0378325 125.14276212 C219.04697121 117.22439031 219.04815889 109.30604502 219.04295516 101.38766962 C219.03987181 96.6879506 219.03932401 91.98827323 219.04602814 87.28855705 C219.57359484 45.08308037 219.57359484 45.08308037 209.5078125 4.41015625 C208.7734375 2.44140625 208.7734375 2.44140625 208.7734375 0.44140625 C225.6034375 0.44140625 242.4334375 0.44140625 259.7734375 0.44140625 C256.7734375 9.44140625 256.7734375 9.44140625 255.4921875 13.07421875 C245.73098914 41.04380637 245.61256193 70.36387435 245.65991211 99.6394043 C245.66019482 102.11508178 245.66003461 104.59075934 245.6594696 107.06643677 C245.65924357 112.35578232 245.66203735 117.64511245 245.66770744 122.93445396 C245.67589962 130.58157225 245.67844549 138.22868459 245.67969543 145.87580679 C245.68187395 158.28838307 245.6885012 170.70095271 245.69799805 183.11352539 C245.70720342 195.15779589 245.71426889 207.20206457 245.71850586 219.24633789 C245.71876858 219.99108203 245.71903131 220.73582618 245.71930199 221.50313833 C245.72060721 225.23999815 245.72187087 228.97685798 245.72311389 232.71371782 C245.73344907 263.62295212 245.75110969 294.53217817 245.7734375 325.44140625 C241.10216896 325.67358047 236.43432989 325.84146043 231.75862122 325.95295715 C230.17259676 325.99947253 228.58696474 326.06279085 227.00233459 326.14393616 C213.87377496 326.79882581 213.87377496 326.79882581 208.67158604 323.4367218 C204.72798857 319.53532235 201.47777082 315.27246708 198.95703125 310.31640625 C195.99827101 304.79121755 192.63188434 299.74507547 189.0234375 294.62890625 C187.96364885 293.06158134 186.90631294 291.49259485 185.8515625 289.921875 C182.95527198 285.65870336 179.89814583 281.53890597 176.7734375 277.44140625 C170.71864025 269.48324698 165.08941173 261.26423931 159.49169922 252.98046875 C157.13250623 249.49430691 154.75827864 246.0184908 152.38452148 242.54223633 C142.77055643 228.4611764 133.19235412 214.35570964 123.60742188 200.25488281 C114.25703698 186.49959663 104.90233178 172.74730017 95.52587891 159.00976562 C93.8299305 156.52420179 92.13559963 154.03754152 90.44140625 151.55078125 C79.43531472 135.41060945 68.25355328 119.40347414 56.77734375 103.59375 C54.93589184 101.0551563 53.10710866 98.50901298 51.30078125 95.9453125 C45.52409598 87.75098191 39.49954219 79.76329592 33.39331055 71.8112793 C29.76308006 67.07986847 26.20458818 62.31934774 22.7734375 57.44140625 C17.83275233 66.2725947 18.48241647 77.50007128 18.51464844 87.31518555 C18.51193001 88.66241137 18.50836436 90.00963571 18.50402832 91.3568573 C18.49498471 94.98638359 18.49842003 98.61579489 18.50478649 102.24532294 C18.50991035 106.08956152 18.50513554 109.93379135 18.50201416 113.7780304 C18.4983837 120.25299811 18.50313975 126.72792011 18.51269531 133.20288086 C18.52348128 140.5949492 18.5201232 147.98690631 18.5090425 155.37897176 C18.4998259 161.79327397 18.49875569 168.20754358 18.50391984 174.62185031 C18.50697478 178.42167735 18.50763709 182.22145313 18.50084686 186.02127647 C18.45909167 213.08531954 19.47186457 240.09845992 22.5859375 267.00390625 C22.66858856 267.73882294 22.75123962 268.47373962 22.83639526 269.23092651 C24.67786141 285.45530839 27.63280198 301.32273698 32.20288086 317.01147461 C32.7734375 319.44140625 32.7734375 319.44140625 32.7734375 323.44140625 C13.9634375 323.44140625 -4.8465625 323.44140625 -24.2265625 323.44140625 C-22.9065625 318.82140625 -21.5865625 314.20140625 -20.2265625 309.44140625 C-17.0604389 296.2492246 -15.09453553 282.87118605 -13.2265625 269.44140625 C-13.05479492 268.21421875 -12.88302734 266.98703125 -12.70605469 265.72265625 C-10.15427375 246.96153993 -8.67183579 228.16696369 -7.62890625 209.265625 C-7.53071405 207.49406036 -7.53071405 207.49406036 -7.43053818 205.68670654 C-6.06448974 180.45939803 -5.76140166 155.26990696 -5.83544922 130.01025391 C-5.85269849 124.07619744 -5.84221821 118.14253978 -5.82516861 112.20849609 C-5.77133923 90.29016529 -5.88484727 68.40664922 -7.4375 46.53515625 C-7.51205854 45.37564201 -7.51205854 45.37564201 -7.58812332 44.19270325 C-8.506392 30.4696145 -10.99144042 16.79252047 -19.2265625 5.44140625 C-19.8865625 4.45140625 -20.5465625 3.46140625 -21.2265625 2.44140625 C-14.0703054 0.57868425 -7.3798277 0.07872189 0 0 Z " fill="#060809" transform="translate(881.2265625,1065.55859375)"/>
<path d="M0 0 C0 17.49 0 34.98 0 53 C-7.84317651 51.87954621 -7.84317651 51.87954621 -11.75 48.4375 C-13.03777344 47.3546875 -13.03777344 47.3546875 -14.3515625 46.25 C-15.22554687 45.5075 -16.09953125 44.765 -17 44 C-25.37235743 37.15695863 -34.00610469 32.87961018 -44 29 C-45.17175781 28.5359375 -46.34351563 28.071875 -47.55078125 27.59375 C-81.0293216 15.37911014 -121.65107229 16.34795776 -154.23388672 31.00488281 C-163.80509718 35.51262752 -172.20173008 40.78312459 -180 48 C-180.76441406 48.68449219 -181.52882813 49.36898438 -182.31640625 50.07421875 C-205.49477912 71.88204436 -216.53804995 104.25842757 -221 135 C-221.1016748 135.65597168 -221.20334961 136.31194336 -221.30810547 136.98779297 C-224.08102009 157.55481212 -223.322017 180.75228993 -219 201 C-218.80664062 201.94166016 -218.61328125 202.88332031 -218.4140625 203.85351562 C-211.87260976 234.92541613 -197.16664879 269.5040502 -170.09375 288.09765625 C-143.70909866 304.32155171 -113.93213533 310.44312149 -83.2512207 310.20581055 C-80.80344235 310.18743199 -78.35604381 310.1853029 -75.90820312 310.18554688 C-66.56075128 310.16406172 -57.31604638 309.82314635 -48 309 C-47.85618896 308.09878418 -47.71237793 307.19756836 -47.56420898 306.26904297 C-46.125 297.25 -46.125 297.25 -45 295 C-38.57761421 254.81197797 -38.22172119 212.58861405 -48.72998047 173.08569336 C-49.47065877 170.28809721 -50 167.91089498 -50 165 C-41.93347826 164.97687263 -33.86697028 164.95908291 -25.80042362 164.94818783 C-22.05516963 164.94295986 -18.30993824 164.93586378 -14.56469727 164.92456055 C-10.95318313 164.91372859 -7.34169079 164.90772251 -3.73016167 164.90512276 C-2.34939671 164.90326906 -0.968633 164.89964951 0.41212273 164.89426994 C2.33975952 164.88705553 4.26741807 164.88659191 6.19506836 164.88647461 C7.84387245 164.88314369 7.84387245 164.88314369 9.52598572 164.87974548 C12 165 12 165 13 166 C12.73921257 170.1725989 11.97482648 173.2578223 10.125 177 C2.67452617 192.9575603 3.74281255 212.61689107 3.6875 229.875 C3.68355225 230.78099945 3.67960449 231.6869989 3.67553711 232.62045288 C3.63245948 254.4170289 5.09782089 276.12211826 6.5769043 297.85693359 C6.62319631 298.53811154 6.66948832 299.21928949 6.71718311 299.9211092 C6.93658132 303.13881478 7.16023392 306.35613646 7.39021301 309.57310486 C8.20568493 321.18825823 8.20568493 321.18825823 8 326 C5.85298052 328.14701948 1.44752473 327.92005843 -1.51953125 328.33984375 C-2.39598801 328.46640854 -3.27244476 328.59297333 -4.17546082 328.72337341 C-31.63003172 332.65239751 -58.50301196 335.15033253 -86.25 335.1875 C-87.16442871 335.18876892 -88.07885742 335.19003784 -89.02099609 335.19134521 C-104.60297408 335.18888815 -119.97350466 334.79187842 -135.375 332.1875 C-136.44371338 332.01009277 -137.51242676 331.83268555 -138.61352539 331.64990234 C-172.16090277 325.96271298 -202.56538759 315.08120426 -229 293 C-229.68707031 292.44828125 -230.37414063 291.8965625 -231.08203125 291.328125 C-236.86678714 286.53601953 -241.41745908 280.9275046 -246 275 C-246.68191406 274.13375 -247.36382813 273.2675 -248.06640625 272.375 C-259.75206621 257.00755677 -267.25056358 239.10857135 -271.8125 220.4375 C-272.10483521 219.25389893 -272.10483521 219.25389893 -272.40307617 218.04638672 C-275.63525414 203.89545858 -276.3492605 189.64438685 -276.25 175.1875 C-276.24756287 174.4065094 -276.24512573 173.6255188 -276.24261475 172.82086182 C-276.07865429 127.91060299 -264.38060878 85.24648282 -233 52 C-232.37738281 51.32453125 -231.75476562 50.6490625 -231.11328125 49.953125 C-222.38481137 40.80378551 -211.83071995 33.44180076 -201 27 C-200.41911621 26.6508252 -199.83823242 26.30165039 -199.23974609 25.94189453 C-189.19766381 19.94370856 -178.94123988 15.12222343 -168 11 C-167.14768799 10.67596191 -166.29537598 10.35192383 -165.41723633 10.01806641 C-147.54433135 3.35187902 -128.86604928 -0.45354489 -110 -3 C-109.13133301 -3.11859375 -108.26266602 -3.2371875 -107.36767578 -3.359375 C-71.81458635 -7.93194459 -35.2645124 -5.03778749 0 0 Z " fill="#060709" transform="translate(1608,1063)"/>
<path d="M0 0 C17.76236151 -0.04721966 35.52470279 -0.08222876 53.28711319 -0.10362434 C61.53892393 -0.11383323 69.79069515 -0.1276881 78.04248047 -0.15087891 C85.25470981 -0.17113807 92.46691049 -0.18379128 99.67916751 -0.18817699 C103.47984553 -0.19073091 107.28044173 -0.19650051 111.08109283 -0.21146011 C133.14162857 -0.29495188 154.97168197 0.62738596 177 2 C177 15.86 177 29.72 177 44 C172 39 172 39 170.18359375 37.15625 C143.9060487 12.23079339 81.72837612 20.43607417 56 20 C55.67 62.9 55.34 105.8 55 150 C100.80271295 149.27658823 100.80271295 149.27658823 146.484375 147.40234375 C154.00082686 147.00394822 161.47156934 146.89750523 169 147 C167.85200791 153.5818213 164.78135443 156.58348997 159.5 160.5 C147.8211085 168.38882539 134.21321228 171.89108194 120.375 173.625 C119.38846436 173.74979736 118.40192871 173.87459473 117.38549805 174.00317383 C101.04373425 175.94246338 84.63635338 176.05457615 68.19921875 176.01953125 C66.9215564 176.01812134 65.64389404 176.01671143 64.32751465 176.01525879 C61.21833806 176.01162233 58.10917166 176.00651406 55 176 C54.95314845 187.28548593 54.91786781 198.5709478 54.89637566 209.85651207 C54.88604771 215.0998522 54.87209624 220.34312461 54.84912109 225.58642578 C54.70536292 259.30126057 55.7719674 290.08786962 64 323 C42.22 323 20.44 323 -2 323 C-1.24332607 319.21663035 -0.37790077 316.11843799 0.92578125 312.54296875 C3.18293246 305.87962991 4.26070006 299.26936536 5.1875 292.3125 C5.35185547 291.15427734 5.51621094 289.99605469 5.68554688 288.80273438 C6.14359565 285.53705057 6.58756049 282.27176268 7 279 C7.08416038 278.35001274 7.16832077 277.70002547 7.25503147 277.03034163 C7.91426131 271.60786263 8.14215552 266.2908841 8.12698364 260.83190918 C8.12854363 259.95416667 8.13010362 259.07642415 8.13171089 258.17208338 C8.13567355 255.25467872 8.1325496 252.33732685 8.12939453 249.41992188 C8.13075075 247.3181251 8.13253193 245.21632856 8.13470459 243.11453247 C8.13925488 237.41988477 8.13749864 231.72525523 8.1343255 226.03060722 C8.13178682 220.05413643 8.13414389 214.07766715 8.13571167 208.10119629 C8.13753009 198.05737022 8.13513681 188.01355151 8.13037109 177.96972656 C8.12494096 166.39270418 8.12668336 154.81569945 8.1321975 143.2386775 C8.13675214 133.27398005 8.13736735 123.30928787 8.13475883 113.34458971 C8.13320744 107.40460452 8.13297066 101.46462759 8.13629532 95.52464294 C8.13920786 89.93005433 8.13713685 84.33548817 8.13140106 78.74090195 C8.13009096 76.70008761 8.1304374 74.65927134 8.13266373 72.61845779 C8.14805523 57.06141805 7.94967613 41.541594 5.625 26.125 C5.49561035 25.24005859 5.3662207 24.35511719 5.23291016 23.44335938 C4.38780795 17.90177239 3.31096666 12.51924729 1.6484375 7.15625 C0.93727136 4.79140839 0.4706788 2.42292043 0 0 Z " fill="#07080A" transform="translate(1933,1066)"/>
<path d="M0 0 C82.83 0 165.66 0 251 0 C246.99189014 10.02027465 240.11460401 14.78975185 230.4375 19.15625 C214.90476548 25.2583957 198.5081231 26.16663322 182.01953125 26.09765625 C180.72552902 26.0962413 179.43152679 26.09482635 178.09831238 26.09336853 C174.69703149 26.08959305 171.29579491 26.07980669 167.89453125 26.06866455 C164.40820922 26.05834213 160.92187986 26.05384796 157.43554688 26.04882812 C150.62367999 26.03817873 143.81184213 26.02116388 137 26 C137.07064667 26.9783934 137.14129333 27.9567868 137.21408081 28.96482849 C137.86657876 38.39362737 138.14752146 47.76797571 138.1328125 57.22265625 C138.13349174 58.65661129 138.13446679 60.09056621 138.13571167 61.52452087 C138.13717439 64.52718199 138.13509048 67.52981313 138.13037109 70.5324707 C138.12483359 74.21975535 138.12795508 77.90696515 138.13381958 81.59424686 C138.15727115 99.17446154 137.92413796 116.73732515 137.5078125 134.3125 C136.93277579 158.8029857 136.77893259 183.28818216 136.75976562 207.78491211 C136.75533713 212.58023502 136.74122544 217.37538242 136.71875 222.1706543 C136.4434525 254.92030557 136.4434525 254.92030557 138.25390625 287.6015625 C138.36067688 288.81645859 138.46744751 290.03135468 138.57745361 291.2830658 C139.76105849 302.28339952 143.3950725 312.01354203 148 322 C148 322.33 148 322.66 148 323 C126.22 323 104.44 323 82 323 C82 316.54856915 82.34901622 314.52537049 84.88378906 309.0246582 C88.18508446 301.33149095 89.30788681 293.95301738 89.859375 285.60546875 C89.91493309 284.87631948 89.97049118 284.14717022 90.02773285 283.39592552 C91.61522035 262.47033808 91.37590955 241.46948285 91.26428223 220.49920654 C91.24530997 216.26604276 91.24117412 212.03292312 91.23744869 207.79972267 C91.21811988 187.94612881 91.06585005 168.10729274 90.48828125 148.26171875 C89.80654 124.83345181 89.88508799 101.40630649 89.93133545 77.97009277 C89.94179619 72.08162818 89.94618036 66.19315882 89.95117188 60.3046875 C89.96171242 48.86977981 89.97864456 37.43489227 90 26 C81.55766309 26.06178005 73.11566642 26.13927974 64.67366123 26.23571491 C60.75178221 26.2800458 56.82999823 26.31937845 52.90795898 26.34643555 C49.10813879 26.37284766 45.30869211 26.41350139 41.50910759 26.46318626 C40.07463237 26.47960352 38.64009294 26.49127139 37.2055378 26.49761391 C21.855533 26.57220237 3.66446291 27.49490204 -9 37 C-9.66 37 -10.32 37 -11 37 C-9.86737996 32.41529867 -8.72460719 27.8333197 -7.56884766 23.25439453 C-7.19989263 21.79219253 -6.8322966 20.32964668 -6.46630859 18.86669922 C-5.96402301 16.8675172 -5.45211752 14.8710386 -4.9375 12.875 C-4.63714844 11.69679688 -4.33679687 10.51859375 -4.02734375 9.3046875 C-3 6 -3 6 0 0 Z " fill="#07090A" transform="translate(2726,1066)"/>
<path d="M0 0 C21.45 0 42.9 0 65 0 C64.27282996 6.54453038 63.86452056 10.12802761 61.5 15.8125 C59.01944924 21.84802613 57.81119781 26.84194664 57.4475708 33.35952759 C57.38446051 34.47450857 57.38446051 34.47450857 57.32007527 35.61201441 C56.8127416 45.48549556 56.84382119 55.36370595 56.83886719 65.24755859 C56.83422663 67.43283164 56.82920036 69.61810389 56.82382202 71.80337524 C56.8108151 77.69242309 56.8042762 83.58145961 56.79981136 89.47051954 C56.79686158 93.16525005 56.79275338 96.85997759 56.78830719 100.55470657 C56.7746631 112.15980239 56.76498139 123.76489125 56.7611053 135.36999452 C56.75663201 148.68272702 56.73910488 161.99532431 56.7101047 175.30803049 C56.68836119 185.65520854 56.67839431 196.00235786 56.67706418 206.34955847 C56.67602518 212.50328599 56.67031325 218.65691626 56.65224457 224.81061935 C55.83069306 273.24672887 55.83069306 273.24672887 67 320 C67 320.99 67 321.98 67 323 C45.22 323 23.44 323 1 323 C2.10892014 313.01971871 2.10892014 313.01971871 4.45004272 308.17176819 C7.07105226 302.20017969 8.16289514 296.71477522 8.79931641 290.25170898 C8.91697168 289.13893554 9.03462696 288.02616209 9.15584755 286.87966824 C10.44632861 273.33726849 10.3492653 259.77553858 10.22858477 246.18879962 C10.19807359 242.35720612 10.18588723 238.52554475 10.17147827 234.69386292 C10.14474188 228.15612276 10.10750679 221.61851609 10.06335449 215.08087158 C10.0016224 205.85600132 9.96484118 196.63115276 9.93496561 187.40613055 C9.88246938 171.23914023 9.80667007 155.07238355 9.71242142 138.90558434 C9.70247332 137.1952757 9.69253859 135.48496699 9.68261719 133.7746582 C9.67769595 132.92667526 9.67277471 132.07869231 9.66770434 131.20501292 C9.62776675 124.19833834 9.59662497 117.19164097 9.56685698 110.18491691 C9.53692358 103.26341118 9.49970241 96.34196693 9.45720994 89.42052704 C9.43244027 85.35758449 9.41051205 81.29468322 9.39665604 77.23168755 C9.74028713 45.72009566 9.74028713 45.72009566 4.5 14.8125 C4.28730469 13.98298828 4.07460938 13.15347656 3.85546875 12.29882812 C2.89389991 8.66787338 2.11338504 6.17007755 0 3 C0 2.01 0 1.02 0 0 Z " fill="#07080A" transform="translate(569,1066)"/>
<path d="M0 0 C2.64 0 5.28 0 8 0 C5.04816899 2.95183101 2.04488053 3.08663988 -2 4 C-1.34 2.68 -0.68 1.36 0 0 Z " fill="#3D3F3F" transform="translate(488,1407)"/>
</svg>
